<svg width="544" height="185" viewBox="0 0 544 185" fill="none" xmlns="http://www.w3.org/2000/svg">
<g clip-path="url(#clip0_5_16)">
<path d="M15.81 105.23C10.9367 105.23 7.08333 103.813 4.25 100.98C1.41667 98.1467 0 94.2933 0 89.42V1.53C1.24667 1.30334 3.23 1.02 5.95 0.680003C8.67 0.226668 11.2767 0 13.77 0C16.3767 0 18.6433 0.226668 20.57 0.680003C22.61 1.02 24.31 1.7 25.67 2.72C27.03 3.74 28.05 5.15667 28.73 6.97C29.41 8.78334 29.75 11.1633 29.75 14.11V81.26H68.68C69.4733 82.5067 70.21 84.2067 70.89 86.36C71.57 88.4 71.91 90.5533 71.91 92.82C71.91 97.3533 70.9467 100.583 69.02 102.51C67.0933 104.323 64.5433 105.23 61.37 105.23H15.81Z" fill="#00B7A1"/>
<path d="M83.7582 17.51C83.7582 12.6367 85.1749 8.78334 88.0082 5.95001C90.8415 3.11668 94.6949 1.70001 99.5682 1.70001H155.668C156.462 2.94667 157.142 4.59001 157.708 6.63001C158.388 8.67001 158.728 10.8233 158.728 13.09C158.728 17.3967 157.765 20.4567 155.838 22.27C154.025 24.0833 151.588 24.99 148.528 24.99H112.658V40.8H150.908C151.702 42.0467 152.382 43.69 152.948 45.73C153.628 47.6567 153.968 49.7533 153.968 52.02C153.968 56.3267 153.062 59.3867 151.248 61.2C149.435 63.0133 146.998 63.92 143.938 63.92H112.658V81.77H156.348C157.142 83.0167 157.822 84.66 158.388 86.7C159.068 88.74 159.408 90.8933 159.408 93.16C159.408 97.4667 158.445 100.583 156.518 102.51C154.705 104.323 152.268 105.23 149.208 105.23H99.5682C94.6949 105.23 90.8415 103.813 88.0082 100.98C85.1749 98.1467 83.7582 94.2933 83.7582 89.42V17.51Z" fill="#00B7A1"/>
<path d="M168.733 25.5C167.94 24.2533 167.203 22.5533 166.523 20.4C165.843 18.2467 165.503 15.98 165.503 13.6C165.503 9.18 166.466 6.00667 168.393 4.08001C170.433 2.15334 173.04 1.19001 176.213 1.19001H250.333C251.126 2.43667 251.863 4.13667 252.543 6.29C253.223 8.44334 253.563 10.71 253.563 13.09C253.563 17.51 252.543 20.6833 250.503 22.61C248.576 24.5367 246.026 25.5 242.853 25.5H223.983V104.04C222.736 104.38 220.753 104.72 218.033 105.06C215.426 105.4 212.82 105.57 210.213 105.57C207.606 105.57 205.283 105.343 203.243 104.89C201.316 104.55 199.673 103.87 198.313 102.85C196.953 101.83 195.933 100.413 195.253 98.6C194.573 96.7867 194.233 94.4067 194.233 91.46V25.5H168.733Z" fill="#00B7A1"/>
<path d="M355.572 104.04C354.326 104.38 352.342 104.72 349.622 105.06C347.016 105.4 344.409 105.57 341.802 105.57C339.196 105.57 336.872 105.343 334.832 104.89C332.906 104.55 331.262 103.87 329.902 102.85C328.542 101.83 327.522 100.413 326.842 98.6C326.162 96.7867 325.822 94.4067 325.822 91.46V1.70001C327.069 1.47334 329.052 1.19001 331.772 0.850013C334.492 0.396679 337.099 0.17001 339.592 0.17001C342.199 0.17001 344.466 0.396679 346.392 0.850013C348.432 1.19001 350.132 1.87 351.492 2.89C352.852 3.91 353.872 5.32667 354.552 7.14001C355.232 8.95334 355.572 11.3333 355.572 14.28V104.04Z" fill="#00B7A1"/>
<path d="M369.459 25.5C368.666 24.2533 367.929 22.5533 367.249 20.4C366.569 18.2467 366.229 15.98 366.229 13.6C366.229 9.18 367.192 6.00667 369.119 4.08001C371.159 2.15334 373.766 1.19001 376.939 1.19001H451.059C451.853 2.43667 452.589 4.13667 453.269 6.29C453.949 8.44334 454.289 10.71 454.289 13.09C454.289 17.51 453.269 20.6833 451.229 22.61C449.302 24.5367 446.752 25.5 443.579 25.5H424.709V104.04C423.463 104.38 421.479 104.72 418.759 105.06C416.152 105.4 413.546 105.57 410.939 105.57C408.332 105.57 406.009 105.343 403.969 104.89C402.042 104.55 400.399 103.87 399.039 102.85C397.679 101.83 396.659 100.413 395.979 98.6C395.299 96.7867 394.959 94.4067 394.959 91.46V25.5H369.459Z" fill="#00B7A1"/>
<path d="M231.2 162.86H237.575V105.485H231.2V84.575H289.723C300.348 84.575 308.635 86.7425 314.585 91.0775C320.535 95.4125 323.51 101.618 323.51 109.693C323.51 114.708 322.32 118.957 319.94 122.442C317.56 125.842 314.755 128.435 311.525 130.22C308.38 131.92 305.32 133.068 302.345 133.663V134.938C308.38 135.533 313.82 137.445 318.665 140.675C323.51 143.905 325.933 149.685 325.933 158.015C325.933 166.94 322.575 173.485 315.86 177.65C309.145 181.73 300.433 183.77 289.723 183.77H231.2V162.86ZM280.16 126.395C282.625 126.395 284.453 125.758 285.643 124.482C286.917 123.122 287.555 121.04 287.555 118.235V113.645C287.555 110.84 286.917 108.8 285.643 107.525C284.453 106.165 282.625 105.485 280.16 105.485H273.275V126.395H280.16ZM281.052 162.86C283.518 162.86 285.345 162.223 286.535 160.948C287.81 159.588 288.447 157.505 288.447 154.7V149.09C288.447 146.285 287.81 144.245 286.535 142.97C285.345 141.61 283.518 140.93 281.052 140.93H273.275V162.86H281.052Z" fill="#F17918"/>
<path d="M367.802 185.555C355.732 185.555 346.297 182.41 339.497 176.12C332.697 169.745 329.297 160.48 329.297 148.325C329.297 136.17 332.697 126.947 339.497 120.657C346.297 114.282 355.732 111.095 367.802 111.095C379.787 111.095 388.415 114.24 393.685 120.53C399.04 126.735 401.717 134.47 401.717 143.735V152.915H360.407V153.68C360.407 156.825 361.342 159.163 363.212 160.693C365.082 162.138 368.185 162.86 372.52 162.86C377.705 162.86 382.635 162.478 387.31 161.713C391.985 160.948 396.065 159.97 399.55 158.78V179.18C396.575 180.795 392.197 182.283 386.417 183.643C380.722 184.918 374.517 185.555 367.802 185.555ZM375.197 138.89V137.36C375.197 134.47 374.56 132.388 373.285 131.113C372.095 129.838 370.267 129.2 367.802 129.2C365.337 129.2 363.467 129.88 362.192 131.24C361.002 132.515 360.407 134.555 360.407 137.36V138.89H375.197Z" fill="#F17918"/>
<path d="M443.505 185.555C431.435 185.555 422 182.41 415.2 176.12C408.4 169.745 405 160.48 405 148.325C405 136.17 408.4 126.947 415.2 120.657C422 114.282 431.435 111.095 443.505 111.095C455.49 111.095 464.118 114.24 469.388 120.53C474.743 126.735 477.42 134.47 477.42 143.735V152.915H436.11V153.68C436.11 156.825 437.045 159.163 438.915 160.693C440.785 162.138 443.888 162.86 448.223 162.86C453.408 162.86 458.338 162.478 463.013 161.713C467.688 160.948 471.768 159.97 475.253 158.78V179.18C472.278 180.795 467.9 182.283 462.12 183.643C456.425 184.918 450.22 185.555 443.505 185.555ZM450.9 138.89V137.36C450.9 134.47 450.263 132.388 448.988 131.113C447.798 129.838 445.97 129.2 443.505 129.2C441.04 129.2 439.17 129.88 437.895 131.24C436.705 132.515 436.11 134.555 436.11 137.36V138.89H450.9Z" fill="#F17918"/>
<path d="M535.656 111.095C537.356 111.095 538.971 111.265 540.501 111.605C541.802 111.894 542.919 112.245 543.851 112.657C544.145 112.787 544.326 113.083 544.326 113.405V135.96C544.326 136.566 543.709 136.978 543.14 136.772C539.996 135.634 536.651 135.065 533.106 135.065C527.751 135.065 523.629 136.468 520.739 139.273C517.849 142.078 516.404 146.243 516.404 151.768V162.86H527.879V183.77H481.469V162.86H487.079V133.79H481.469V112.88H516.404V122.188C518.784 118.617 521.504 115.897 524.564 114.027C527.624 112.072 531.321 111.095 535.656 111.095Z" fill="#F17918"/>
</g>
<defs>
<clipPath id="clip0_5_16">
<rect width="543.119" height="185" fill="white"/>
</clipPath>
</defs>
</svg>
